<?xml version="1.0" encoding="UTF-8"?>
<svg id="Layer_1" data-name="Layer 1" xmlns="http://www.w3.org/2000/svg" xmlns:xlink="http://www.w3.org/1999/xlink" viewBox="0 0 1010 128">
  <defs>
    <style>
      .cls-1 {
        fill: none;
      }

      .cls-2 {
        fill: url(#linear-gradient-5);
      }

      .cls-3 {
        fill: url(#linear-gradient-4);
      }

      .cls-4 {
        fill: url(#linear-gradient-3);
      }

      .cls-5 {
        fill: url(#linear-gradient-2);
      }

      .cls-6 {
        fill: url(#linear-gradient);
      }

      .cls-7 {
        fill: #101820;
      }

      .cls-8 {
        fill: #97999b;
      }

      .cls-9 {
        clip-path: url(#clippath);
      }
    </style>
    <clipPath id="clippath">
      <rect class="cls-1" width="128" height="128"/>
    </clipPath>
    <linearGradient id="linear-gradient" x1="-563.87" y1="325.8" x2="-500.22" y2="325.8" gradientTransform="translate(564 364) scale(1 -1)" gradientUnits="userSpaceOnUse">
      <stop offset="0" stop-color="#97999b"/>
      <stop offset="1" stop-color="#101820"/>
    </linearGradient>
    <linearGradient id="linear-gradient-2" x1="-512.24" y1="332.11" x2="-436" y2="332.11" xlink:href="#linear-gradient"/>
    <linearGradient id="linear-gradient-3" x1="-499.65" y1="274.2" x2="-436" y2="274.2" gradientTransform="translate(564 364) scale(1 -1)" gradientUnits="userSpaceOnUse">
      <stop offset="0" stop-color="#101820"/>
      <stop offset="1" stop-color="#97999b"/>
    </linearGradient>
    <linearGradient id="linear-gradient-4" x1="-563.82" y1="267.85" x2="-487.58" y2="267.85" xlink:href="#linear-gradient-3"/>
    <linearGradient id="linear-gradient-5" x1="-47.86" y1="300" x2="22" y2="300" gradientTransform="translate(564 364) scale(1 -1)" gradientUnits="userSpaceOnUse">
      <stop offset="0" stop-color="#97999b"/>
      <stop offset="1" stop-color="#101820"/>
    </linearGradient>
  </defs>
  <g class="cls-9">
    <g>
      <path class="cls-6" d="M57.8,5.47c-.74-1.2-2.64-5.35-6.06-5.47-4.07.06-7.22,2.08-9.08,5.33l-9,15.74c-2.88,5.02-7.1,9.17-12.2,11.98l-16.04,8.84h.01c-3.35,1.84-5.43,5.32-5.43,9.1v25.4c0-3.5,4.26-5.45,5.47-6.2,1.21-.75,32.39-17.89,32.39-17.89,5.11-2.83,9.33-6.98,12.2-12.01l13.72-24.07c-3.12-5.65-5.7-10.3-5.98-10.76h0Z"/>
      <path class="cls-5" d="M122.53,57.8c1.2-.74,5.35-2.64,5.47-6.06-.06-4.07-2.08-7.22-5.33-9.08l-15.74-9c-5.02-2.88-9.17-7.1-11.98-12.2l-8.84-16.04h.01c-1.86-3.34-5.33-5.42-9.12-5.42h-25.4c3.5,0,5.45,4.26,6.2,5.47.75,1.21,17.89,32.39,17.89,32.39,2.83,5.11,6.98,9.33,12.01,12.2l24.07,13.72c5.65-3.12,10.3-5.7,10.76-5.98h0Z"/>
      <path class="cls-4" d="M70.2,122.53c.74,1.2,2.64,5.35,6.06,5.47,4.07-.06,7.22-2.08,9.08-5.33l9-15.74c2.88-5.02,7.1-9.17,12.2-11.98l16.04-8.84h-.01c3.35-1.84,5.43-5.32,5.43-9.1v-25.4c0,3.5-4.26,5.45-5.47,6.2-1.21.75-32.39,17.89-32.39,17.89-5.11,2.83-9.33,6.98-12.2,12.01l-13.72,24.07c3.12,5.65,5.7,10.3,5.98,10.76h0Z"/>
      <path class="cls-3" d="M5.47,70.2c-1.2.74-5.35,2.64-5.47,6.06.06,4.07,2.08,7.22,5.33,9.08l15.74,9c5.02,2.88,9.17,7.1,11.98,12.2l8.84,16.04h-.01c1.86,3.34,5.33,5.42,9.12,5.42h25.4c-3.5,0-5.45-4.26-6.2-5.47-.75-1.21-17.89-32.39-17.89-32.39-2.83-5.11-6.98-9.33-12.01-12.2l-24.07-13.72c-5.65,3.12-10.3,5.7-10.76,5.98h0Z"/>
    </g>
  </g>
  <rect class="cls-7" x="490" y="24" width="16" height="80"/>
  <rect class="cls-7" x="596" y="24" width="16" height="80"/>
  <polygon class="cls-7" points="160 24 160 38 198 38 198 104 214 104 214 38 252 38 252 24 160 24"/>
  <polygon class="cls-7" points="342 24 342 57 278 57 278 24 262 24 262 104 278 104 278 71 342 71 342 104 358 104 358 24 342 24"/>
  <path class="cls-7" d="M462,104h18l-47-80h-18l-47,80h18l9.4-16h57.2l9.4,16ZM403.62,74l20.38-34.68,20.38,34.68h-40.75Z"/>
  <path class="cls-2" d="M586,104h-24l-46-32.28v-15.44l46-32.28h24l-56,40,56,40Z"/>
  <path class="cls-8" d="M973,104c-6.75,0-12.49-.35-17.21-1.05-4.73-.67-8.54-2.05-11.44-4.16-2.91-2.14-5.02-5.33-6.35-9.57-1.33-4.24-1.99-9.91-1.99-16.99s.67-12.38,1.99-16.52c1.33-4.14,3.45-7.26,6.35-9.36,2.9-2.1,6.71-3.51,11.44-4.21,4.72-.7,10.46-1.05,17.21-1.05s11.93.49,16.37,1.47c4.48.98,8.07,3.17,10.63,6.57v-25.14h10v78h-10v-6.1c-2.55,3.44-6.15,5.65-10.63,6.63-4.44.98-9.9,1.47-16.37,1.47ZM999.93,72.23c0-5.01-.35-9.03-1.05-12.05-.7-3.02-1.99-5.28-3.88-6.79-1.89-1.54-4.61-2.58-8.14-3.1-3.53-.53-8.15-.79-13.85-.79-6.23,0-11.16.26-14.8.79-3.64.53-6.31,1.56-8.03,3.1-1.72,1.51-2.84,3.77-3.36,6.79-.49,3.02-.74,7.03-.74,12.05s.25,9.35.74,12.47c.52,3.12,1.64,5.47,3.36,7.05,1.71,1.54,4.39,2.58,8.03,3.1,3.64.49,8.57.74,14.8.74,5.7,0,10.32-.25,13.85-.74,3.53-.53,6.25-1.56,8.14-3.1,1.89-1.58,3.18-3.93,3.88-7.05.7-3.12,1.05-7.28,1.05-12.47Z"/>
  <path class="cls-8" d="M886.95,104c-7.85,0-14.02-.86-18.53-2.59-4.51-1.76-7.72-4.68-9.63-8.76-1.91-4.12-2.79-9.73-2.79-16.84v-33.81h10v33.81c0,4.01.29,7.32.91,9.92.66,2.57,1.81,4.57,3.43,6.02,1.63,1.41,3.92,2.39,6.87,2.96,2.98.56,6.82.84,11.5.84,6.94,0,12.39-.58,16.35-1.74,3.95-1.16,6.75-2.97,8.38-5.44,1.67-2.5,2.55-5.74,2.55-9.71v-36.66h10v59.99h-10v-7.24c-1.46,2.04-3.35,3.75-5.57,5.12-2.22,1.37-5.19,2.39-8.9,3.06-3.71.7-8.57,1.06-14.57,1.06Z"/>
  <path class="cls-8" d="M809,104c-6.75,0-12.49-.35-17.21-1.04-4.72-.66-8.54-2.02-11.44-4.1-2.9-2.11-5.02-5.25-6.35-9.43-1.33-4.18-1.99-9.76-1.99-16.74s.66-12.2,1.99-16.28c1.33-4.08,3.45-7.15,6.35-9.23,2.9-2.07,6.72-3.46,11.44-4.15,4.72-.69,10.46-1.04,17.21-1.04s12.53.35,17.21,1.04c4.73.69,8.54,2.07,11.44,4.15,2.91,2.07,5.02,5.15,6.35,9.23,1.33,4.08,1.99,9.5,1.99,16.28s-.67,12.56-1.99,16.74c-1.33,4.18-3.45,7.33-6.35,9.43-2.9,2.07-6.71,3.44-11.44,4.1-4.69.69-10.43,1.04-17.21,1.04ZM835.93,72.69c0-4.94-.27-8.9-.79-11.87-.49-2.97-1.59-5.2-3.31-6.69-1.71-1.52-4.39-2.54-8.03-3.06-3.6-.52-8.54-.78-14.8-.78s-11.16.26-14.8.78c-3.64.52-6.32,1.54-8.03,3.06-1.71,1.49-2.83,3.72-3.36,6.69-.49,2.97-.73,6.93-.73,11.87s.24,9.21.73,12.29c.52,3.08,1.64,5.39,3.36,6.95,1.71,1.52,4.39,2.54,8.03,3.06,3.64.48,8.57.73,14.8.73s11.2-.24,14.8-.73c3.64-.52,6.31-1.54,8.03-3.06,1.72-1.56,2.82-3.87,3.31-6.95.53-3.08.79-7.17.79-12.29Z"/>
  <path class="cls-8" d="M750,102V24h10v78h-10Z"/>
  <path class="cls-8" d="M644,65v-2c0-6.8.33-12.5,1-17.1.66-4.63,1.81-8.4,3.44-11.3,1.63-2.9,3.84-5.12,6.63-6.65,2.82-1.53,6.36-2.57,10.62-3.1,4.25-.57,9.37-.85,15.35-.85h20.09c6.84,0,12.61.33,17.29,1,4.72.63,8.51,1.92,11.36,3.85,2.89,1.9,4.98,4.72,6.28,8.45,1.3,3.7,1.94,8.62,1.94,14.75h-9.57c0-4.83-.43-8.58-1.3-11.25-.86-2.7-2.33-4.65-4.39-5.85-2.03-1.2-4.8-1.93-8.32-2.2-3.52-.3-7.96-.45-13.31-.45h-20.09c-4.75,0-8.76.15-12.01.45-3.26.27-5.91.92-7.97,1.95-2.03,1-3.59,2.6-4.68,4.8-1.06,2.2-1.79,5.2-2.19,9-.4,3.8-.6,8.63-.6,14.5v2c0,5.67.2,10.37.6,14.1.4,3.73,1.13,6.72,2.19,8.95,1.1,2.23,2.66,3.9,4.68,5,2.06,1.1,4.72,1.82,7.97,2.15,3.26.33,7.26.5,12.01.5h20.09c5.35,0,9.79-.12,13.31-.35s6.3-.92,8.32-2.05c2.06-1.13,3.52-3.02,4.39-5.65.86-2.67,1.3-6.4,1.3-11.2h9.57c0,6.13-.65,11.03-1.94,14.7-1.3,3.67-3.39,6.43-6.28,8.3-2.86,1.83-6.65,3.05-11.36,3.65-4.69.6-10.45.9-17.29.9h-20.09c-7.48,0-13.62-.52-18.44-1.55-4.82-1-8.59-2.87-11.31-5.6-2.69-2.73-4.59-6.67-5.68-11.8-1.06-5.13-1.59-11.82-1.59-20.05Z"/>
</svg>