<svg viewBox="0 0 800 600" xmlns="http://www.w3.org/2000/svg">
    <!-- Image Latent Space (Query) -->
    <g transform="translate(50,50)">
        <!-- 3D Cube for Image Latent Space -->
        <path d="M0,0 L200,0 L200,200 L0,200 Z" fill="#f0f0ff" stroke="#000" stroke-width="2"/>
        <path d="M200,0 L250,50 L250,250 L200,200 Z" fill="#e0e0ff" stroke="#000" stroke-width="2"/>
        <path d="M0,200 L50,250 L250,250 L200,200 Z" fill="#d0d0ff" stroke="#000" stroke-width="2"/>
        <text x="100" y="100" text-anchor="middle" fill="#000">Image Latent Space</text>
        <text x="100" y="120" text-anchor="middle" font-size="12">(Query)</text>
    </g>

    <!-- Text Embedding Space (Key/Value) -->
    <g transform="translate(450,50)">
        <!-- 3D Cube for Text Space -->
        <path d="M0,0 L200,0 L200,200 L0,200 Z" fill="#ffe6e6" stroke="#000" stroke-width="2"/>
        <path d="M200,0 L250,50 L250,250 L200,200 Z" fill="#ffd6d6" stroke="#000" stroke-width="2"/>
        <path d="M0,200 L50,250 L250,250 L200,200 Z" fill="#ffc6c6" stroke="#000" stroke-width="2"/>
        <text x="100" y="100" text-anchor="middle" fill="#000">Text Embedding</text>
        <text x="100" y="120" text-anchor="middle" font-size="12">(Key/Value)</text>
    </g>

    <!-- Cross Attention Process -->
    <g transform="translate(200,300)">
        <!-- Attention Matrix -->
        <g transform="translate(0,0)">
            <path d="M0,0 L150,0 L130,30 L-20,30 Z" fill="#b3e6ff" stroke="#000" stroke-width="2"/>
            <text x="65" y="20" text-anchor="middle" font-size="12">Attention Matrix</text>
        </g>

        <!-- Attention Scores -->
        <g transform="translate(50,50)">
            <rect x="0" y="0" width="300" height="100" fill="#fff" stroke="#000" stroke-width="2"/>
            
            <!-- Score Grid -->
            <line x1="0" y1="25" x2="300" y2="25" stroke="#666" stroke-width="1"/>
            <line x1="0" y1="50" x2="300" y2="50" stroke="#666" stroke-width="1"/>
            <line x1="0" y1="75" x2="300" y2="75" stroke="#666" stroke-width="1"/>
            <line x1="100" y1="0" x2="100" y2="100" stroke="#666" stroke-width="1"/>
            <line x1="200" y1="0" x2="200" y2="100" stroke="#666" stroke-width="1"/>
            
            <text x="150" y="50" text-anchor="middle" font-size="14">Q × K^T / √d</text>
        </g>
    </g>

    <!-- Output Space -->
    <g transform="translate(250,460)">
        <!-- 3D Output Representation -->
        <path d="M0,0 L200,0 L200,80 L0,80 Z" fill="#e6ffe6" stroke="#000" stroke-width="2"/>
        <path d="M200,0 L250,30 L250,110 L200,80 Z" fill="#d6ffd6" stroke="#000" stroke-width="2"/>
        <path d="M0,80 L50,110 L250,110 L200,80 Z" fill="#c6ffc6" stroke="#000" stroke-width="2"/>
        <text x="100" y="45" text-anchor="middle" fill="#000">Output Features</text>
    </g>

    <!-- Connecting Arrows -->
    <g stroke="#666" stroke-width="2" fill="none" marker-end="url(#arrowhead)">
        <!-- Image to Attention -->
        <path d="M150,250 L200,300"/>
        <!-- Text to Attention -->
        <path d="M550,250 L400,300"/>
        <!-- Attention to Output -->
        <path d="M350,400 L350,460"/>
    </g>

    <!-- Arrow Marker -->
    <defs>
        <marker id="arrowhead" markerWidth="10" markerHeight="7" 
        refX="9" refY="3.5" orient="auto">
            <polygon points="0 0, 10 3.5, 0 7" fill="#666"/>
        </marker>
    </defs>

    <!-- Legend -->
    <g transform="translate(600,300)">
        <rect x="0" y="0" width="180" height="200" fill="#fff" stroke="#000"/>
        <text x="10" y="30" font-weight="bold">구성 요소:</text>
        
        <rect x="10" y="50" width="20" height="20" fill="#f0f0ff"/>
        <text x="40" y="65" font-size="12">이미지 잠재 공간 (Q)</text>
        
        <rect x="10" y="80" width="20" height="20" fill="#ffe6e6"/>
        <text x="40" y="95" font-size="12">텍스트 임베딩 (K/V)</text>
        
        <rect x="10" y="110" width="20" height="20" fill="#b3e6ff"/>
        <text x="40" y="125" font-size="12">Attention 가중치</text>
        
        <rect x="10" y="140" width="20" height="20" fill="#e6ffe6"/>
        <text x="40" y="155" font-size="12">출력 특징</text>
    </g>
</svg>
